<svg width="358" height="600" viewBox="0 0 358 600" fill="none" xmlns="http://www.w3.org/2000/svg">
<g clip-path="url(#clip0_395_1775)">
<rect width="358" height="600" fill="white"/>
<rect width="358" height="600" fill="#29CDBE"/>
<path d="M77.5645 318.495C80.3401 318.495 83.1156 317.925 85.7955 316.976C88.8581 315.742 92.7822 314.508 95.2706 314.508C97.9505 314.508 101.587 315.837 104.746 316.976C107.33 318.02 110.106 318.495 112.977 318.495C112.977 318.495 120.825 318.495 120.825 311.091V293.247C120.825 279.295 109.436 268 95.3664 268C81.2971 268 70.0035 279.295 70.0035 293.152V310.997C69.8121 318.495 77.5645 318.495 77.5645 318.495ZM107.521 290.969C109.723 290.969 111.541 292.773 111.541 294.956V298.183C111.541 300.366 109.723 302.075 107.521 302.075C105.32 302.075 103.597 300.366 103.502 298.183V294.956C103.502 292.773 105.32 290.969 107.521 290.969ZM90.7723 302.834C91.0595 302.454 91.538 302.169 92.0165 302.169H98.0462C98.5248 302.169 99.0033 302.359 99.2904 302.834C99.5776 303.213 99.6733 303.688 99.4818 304.163C98.8119 306.061 97.0891 307.39 94.9835 307.39C92.9736 307.39 91.1552 306.061 90.4852 304.163C90.3895 303.688 90.4852 303.213 90.7723 302.834ZM82.4456 290.969C84.647 290.969 86.4654 292.773 86.4654 294.956V298.183C86.4654 300.366 84.647 302.075 82.4456 302.075C80.2443 302.075 78.5216 300.366 78.4259 298.183V294.956C78.5216 292.773 80.2443 290.969 82.4456 290.969Z" fill="white"/>
<path d="M173.656 310.617C175.475 312.325 177.963 312.99 180.356 313.18C184.95 313.559 190.118 312.61 192.32 308.149C193.277 306.061 193.659 303.783 193.468 301.505C193.372 298.847 192.607 296.19 190.884 294.197C189.257 292.393 187.056 291.444 184.663 291.064C182.174 290.685 179.399 290.78 177.102 291.824C174.9 292.678 173.082 294.386 172.029 296.569C170.881 298.847 170.689 301.505 170.881 304.068C171.168 306.441 171.838 308.908 173.656 310.617ZM179.782 299.702C180.739 298.847 182.366 298.752 183.514 299.132C184.95 299.607 185.428 300.936 185.333 302.359C185.333 303.119 185.237 304.068 184.663 304.637C183.993 305.302 183.036 305.397 182.174 305.397C180.93 305.397 179.495 305.112 179.112 303.688C178.729 302.454 178.729 300.651 179.782 299.702Z" fill="white"/>
<path d="M216.438 294.197C214.811 292.393 212.61 291.444 210.217 291.064C207.729 290.685 204.953 290.78 202.656 291.824C200.455 292.678 198.636 294.386 197.584 296.569C196.435 298.847 196.244 301.505 196.435 304.068C196.722 306.441 197.392 308.908 199.211 310.617C201.029 312.325 203.517 312.99 205.91 313.18C210.504 313.559 215.673 312.61 217.874 308.149C218.831 306.061 219.214 303.783 219.022 301.505C218.927 298.942 218.161 296.285 216.438 294.197ZM210.217 304.637C209.547 305.302 208.59 305.397 207.729 305.397C206.484 305.397 205.049 305.112 204.666 303.688C204.283 302.454 204.379 300.651 205.432 299.702C206.389 298.847 208.016 298.752 209.164 299.132C210.6 299.607 211.078 300.936 210.983 302.359C210.887 303.213 210.791 304.068 210.217 304.637Z" fill="white"/>
<path d="M224.095 312.136C225.052 312.99 226.296 313.369 227.54 313.274C229.263 313.18 231.752 312.61 231.943 310.332C232.039 309.668 231.847 309.003 231.464 308.529C231.177 308.149 230.89 307.769 230.699 307.39C230.316 306.536 230.22 305.491 230.316 304.542C230.316 303.498 230.507 302.359 230.89 301.41C231.369 300.366 232.039 299.797 233.187 299.702C234.336 299.607 235.771 299.891 236.346 301.125C236.824 302.264 236.537 303.593 236.633 304.827C236.728 305.776 237.016 306.725 237.686 307.485C238.547 308.434 239.887 308.624 241.035 308.624C243.045 308.624 244.959 307.675 245.342 305.491C245.725 303.593 244.864 300.651 247.161 299.891C248.118 299.607 249.553 299.607 250.415 300.271C251.181 300.936 251.468 301.98 251.659 302.929C251.85 303.973 251.85 305.112 251.659 306.156C251.563 306.63 251.468 307.01 251.372 307.485C251.181 307.959 250.893 308.244 250.606 308.624C249.936 309.573 249.936 310.902 250.702 311.851C251.276 312.61 252.233 312.99 253.19 313.18C254.147 313.369 255.296 313.464 256.349 313.18C257.593 312.8 258.646 311.851 259.22 310.617C260.56 307.864 260.464 304.352 260.081 301.41C259.794 298.563 258.742 295.715 256.636 293.722C254.435 291.729 251.563 290.875 248.788 290.875C247.544 290.875 246.299 290.875 245.055 291.159C243.62 291.444 242.28 292.108 241.035 292.963C238.93 291.444 236.441 290.875 233.857 290.875C231.464 290.875 229.072 291.159 226.966 292.488C224.573 293.912 223.042 296.38 222.372 299.227C221.989 300.651 221.894 302.169 221.798 303.688C221.702 305.302 221.798 306.915 222.181 308.529C222.564 309.858 223.138 311.186 224.095 312.136Z" fill="white"/>
<path d="M273.576 323.241C274.438 322.861 275.108 322.291 275.299 321.342C275.491 320.203 275.108 318.969 274.438 318.02C273.576 316.786 272.141 315.932 270.609 315.742C268.695 315.458 266.972 316.312 265.824 317.735C263.048 321.247 263.336 326.942 266.972 329.695C268.312 330.739 270.035 331.308 271.662 331.593C273.959 332.068 276.543 332.163 278.84 331.688C282.86 330.929 286.306 328.271 287.933 324.569C288.698 322.861 289.081 320.963 288.986 319.064C288.986 317.735 288.794 316.502 288.603 315.173C288.411 313.844 288.316 312.61 288.124 311.281C287.741 308.149 287.071 305.017 286.88 301.885C286.784 300.841 286.88 299.797 286.976 298.752C287.071 298.088 287.358 297.519 287.55 296.949C287.837 296.38 288.124 296 288.411 295.43C288.986 294.481 288.89 293.342 288.22 292.488C287.167 291.064 284.87 290.685 283.243 290.78C281.712 290.875 280.372 291.634 279.606 292.963C278.84 294.197 278.649 295.62 278.553 297.044C278.458 298.088 278.553 299.132 278.649 300.176C278.745 300.651 278.84 301.125 278.84 301.505C278.936 302.549 278.84 303.878 277.883 304.542C277.213 305.112 276.256 305.207 275.491 305.112C274.821 305.112 274.246 305.112 273.576 304.827C271.854 304.163 271.949 302.169 272.045 300.651C272.141 298.942 272.236 297.234 271.949 295.525C271.758 293.912 271.088 292.203 269.557 291.444C268.695 290.969 267.738 290.969 266.877 290.875C265.92 290.78 264.867 290.78 263.91 290.969C263.048 291.159 262.283 291.729 261.9 292.488C261.517 293.247 261.517 294.197 261.996 294.956C262.378 295.62 263.048 296 263.336 296.664C263.623 297.234 263.527 297.898 263.527 298.468C263.527 302.075 263.048 306.156 265.25 309.288C267.164 311.946 270.322 313.085 273.481 313.085C274.916 313.085 276.448 312.895 277.883 312.61C278.17 312.515 278.553 312.42 278.84 312.325C278.936 312.325 279.128 312.23 279.223 312.135C279.319 312.135 279.415 312.041 279.606 312.041C279.797 311.946 279.797 312.041 280.085 312.041C280.085 312.135 280.18 312.135 280.18 312.23C280.276 312.42 280.276 312.515 280.372 312.705C280.85 314.034 281.042 315.363 281.137 316.691C281.233 318.4 281.233 320.108 280.85 321.722C280.563 323.051 279.989 324.569 278.649 325.234C277.213 326.088 274.246 326.942 272.906 325.329C272.619 324.949 272.524 324.474 272.428 324.095C272.619 323.81 273.002 323.43 273.576 323.241ZM280.276 312.325C280.18 312.325 280.18 312.325 280.276 312.325V312.325Z" fill="white"/>
<path d="M138.053 309.763C141.689 312.515 146.379 313.369 150.878 313.369C154.802 313.369 158.917 312.61 162.075 310.237C164.085 308.719 165.425 306.63 166.191 304.258C166.957 301.98 167.531 299.417 167.244 297.044C167.052 295.62 166.67 294.102 165.808 292.963C165.138 292.108 164.085 291.539 163.033 291.159C160.927 290.4 158.534 290.305 156.237 290.4C154.514 290.495 152.696 290.78 151.643 292.298C150.59 293.817 150.686 296.759 152.313 297.898C152.983 298.373 153.845 298.468 154.61 298.563C154.993 298.658 155.472 298.752 155.854 298.847C155.95 298.847 156.142 298.942 156.237 298.942C156.429 299.037 156.333 298.942 156.429 299.037C156.62 299.227 156.811 299.512 156.907 299.891C157.099 300.366 157.099 300.746 157.099 301.315C157.003 302.264 156.62 303.308 155.759 303.973C154.419 304.922 152.505 304.732 150.973 304.352C148.293 303.688 145.709 302.264 144.178 299.891C142.168 296.759 142.455 292.583 144.274 289.451C146.571 285.654 151.069 284.136 155.376 284.23C157.003 284.325 158.439 284.8 159.874 285.369C161.023 285.844 162.267 286.414 163.511 286.508C164.66 286.603 166 286.224 166.765 285.369C167.435 284.515 167.627 283.376 167.818 282.332C168.009 280.434 167.818 278.725 166.574 277.207C165.425 275.878 163.703 275.119 162.075 274.549C158.63 273.41 154.61 273.125 150.973 273.22C147.049 273.315 142.934 274.075 139.488 276.163C134.703 279.01 131.927 284.136 131.161 289.451C130.492 293.627 130.779 297.898 132.214 301.79C133.459 304.922 135.373 307.674 138.053 309.763Z" fill="white"/>
<rect x="91" y="339" width="176" height="22" rx="11" fill="#ABEDD8"/>
<path d="M107.922 352.922C107.25 353.048 106.214 353.174 105.43 353.174C103.218 353.174 102.868 351.886 102.868 349.184C102.868 346.426 103.246 345.138 105.402 345.138C106.158 345.138 107.292 345.278 107.922 345.39L107.964 344.48C107.348 344.354 106.284 344.172 105.29 344.172C102.378 344.172 101.748 345.908 101.748 349.184C101.748 352.376 102.392 354.14 105.29 354.14C106.214 354.14 107.278 353.986 107.964 353.846L107.922 352.922ZM109.49 354H110.54V348.862C110.54 348.862 111.772 348.176 113.088 347.91V346.846C111.744 347.112 110.526 347.952 110.526 347.952V347H109.49V354ZM116.784 353.216C115.412 353.216 114.95 352.432 114.95 350.934H119.57L119.626 350.136C119.626 347.84 118.674 346.86 116.812 346.86C115.034 346.86 113.886 347.882 113.886 350.542C113.886 352.922 114.572 354.14 116.658 354.14C117.792 354.14 119.388 353.916 119.388 353.916L119.36 353.09C119.36 353.09 117.834 353.216 116.784 353.216ZM114.936 350.094C114.95 348.4 115.622 347.742 116.812 347.742C118.044 347.742 118.576 348.358 118.576 350.094H114.936ZM126.204 349.114C126.204 347.588 125.532 346.86 123.95 346.86C122.746 346.86 121.206 347.168 121.206 347.168L121.248 347.966C121.248 347.966 122.914 347.784 123.894 347.784C124.734 347.784 125.154 348.134 125.154 349.114V349.716L122.956 349.926C121.514 350.066 120.814 350.654 120.814 351.998C120.814 353.412 121.514 354.14 122.788 354.14C124.048 354.14 125.308 353.58 125.308 353.58C125.728 354 126.232 354.14 126.974 354.14L127.016 353.314C126.568 353.258 126.232 353.104 126.204 352.698V349.114ZM125.154 350.514V352.824C125.154 352.824 123.992 353.258 122.956 353.258C122.242 353.258 121.892 352.782 121.892 351.97C121.892 351.2 122.228 350.794 123.082 350.71L125.154 350.514ZM131.902 347.91V347H129.676V344.858H128.64V347H127.646V347.91H128.64V351.592C128.64 353.608 129.13 354.154 130.572 354.154C131.062 354.154 132 354 132 354L131.93 353.132C131.93 353.132 131.076 353.216 130.684 353.216C129.774 353.216 129.676 352.782 129.676 351.256V347.91H131.902ZM135.774 353.216C134.402 353.216 133.94 352.432 133.94 350.934H138.56L138.616 350.136C138.616 347.84 137.664 346.86 135.802 346.86C134.024 346.86 132.876 347.882 132.876 350.542C132.876 352.922 133.562 354.14 135.648 354.14C136.782 354.14 138.378 353.916 138.378 353.916L138.35 353.09C138.35 353.09 136.824 353.216 135.774 353.216ZM133.926 350.094C133.94 348.4 134.612 347.742 135.802 347.742C137.034 347.742 137.566 348.358 137.566 350.094H133.926ZM143.51 354H144.588V345.264H144.854L148.62 354H150.594V344.312H149.53V353.048H149.236L145.526 344.312H143.51V354ZM155.311 353.216C153.939 353.216 153.477 352.432 153.477 350.934H158.097L158.153 350.136C158.153 347.84 157.201 346.86 155.339 346.86C153.561 346.86 152.413 347.882 152.413 350.542C152.413 352.922 153.099 354.14 155.185 354.14C156.319 354.14 157.915 353.916 157.915 353.916L157.887 353.09C157.887 353.09 156.361 353.216 155.311 353.216ZM153.463 350.094C153.477 348.4 154.149 347.742 155.339 347.742C156.571 347.742 157.103 348.358 157.103 350.094H153.463ZM159.147 347L160.813 354H162.563L164.047 348.526L165.531 354H167.281L168.947 347H167.897L166.497 353.09H166.259L164.593 347.14H163.501L161.835 353.09H161.611L160.197 347H159.147ZM172.873 344.312L174.847 354H176.821L178.655 345.726L180.489 354H182.463L184.423 344.312H183.317L181.665 353.048H181.259L179.285 344.396H178.025L176.051 353.048H175.645L173.993 344.312H172.873ZM190.598 349.114C190.598 347.588 189.926 346.86 188.344 346.86C187.14 346.86 185.6 347.168 185.6 347.168L185.642 347.966C185.642 347.966 187.308 347.784 188.288 347.784C189.128 347.784 189.548 348.134 189.548 349.114V349.716L187.35 349.926C185.908 350.066 185.208 350.654 185.208 351.998C185.208 353.412 185.908 354.14 187.182 354.14C188.442 354.14 189.702 353.58 189.702 353.58C190.122 354 190.626 354.14 191.368 354.14L191.41 353.314C190.962 353.258 190.626 353.104 190.598 352.698V349.114ZM189.548 350.514V352.824C189.548 352.824 188.386 353.258 187.35 353.258C186.636 353.258 186.286 352.782 186.286 351.97C186.286 351.2 186.622 350.794 187.476 350.71L189.548 350.514ZM192.754 354H193.804V343.948H192.754V354ZM195.994 354H197.044V343.948H195.994V354ZM201.741 353.216C200.369 353.216 199.907 352.432 199.907 350.934H204.527L204.583 350.136C204.583 347.84 203.631 346.86 201.769 346.86C199.991 346.86 198.843 347.882 198.843 350.542C198.843 352.922 199.529 354.14 201.615 354.14C202.749 354.14 204.345 353.916 204.345 353.916L204.317 353.09C204.317 353.09 202.791 353.216 201.741 353.216ZM199.893 350.094C199.907 348.4 200.579 347.742 201.769 347.742C203.001 347.742 203.533 348.358 203.533 350.094H199.893ZM209.804 347.91V347H207.578V344.858H206.542V347H205.548V347.91H206.542V351.592C206.542 353.608 207.032 354.154 208.474 354.154C208.964 354.154 209.902 354 209.902 354L209.832 353.132C209.832 353.132 208.978 353.216 208.586 353.216C207.676 353.216 207.578 352.782 207.578 351.256V347.91H209.804Z" fill="#40514E"/>
<path d="M256.607 349.057C255.549 349.057 254.491 349.057 253.433 349.057C253.433 348.358 253.433 347.642 253.433 346.943C253.433 346.604 253.433 346.245 253.433 345.906C253.433 344.698 251.562 344.698 251.562 345.906C251.562 346.962 251.562 348.019 251.562 349.075C250.863 349.075 250.145 349.075 249.446 349.075C249.106 349.075 248.747 349.075 248.407 349.075C247.198 349.075 247.198 350.943 248.407 350.943C249.465 350.943 250.523 350.943 251.581 350.943C251.581 351.642 251.581 352.358 251.581 353.057C251.581 353.396 251.581 353.755 251.581 354.094C251.581 355.302 253.452 355.302 253.452 354.094C253.452 353.038 253.452 351.981 253.452 350.925C254.151 350.925 254.869 350.925 255.568 350.925C255.908 350.925 256.267 350.925 256.607 350.925C257.798 350.906 257.798 349.057 256.607 349.057Z" fill="#40514E"/>
<rect x="91" y="368" width="178.381" height="22" rx="11" fill="#48466D"/>
<path d="M102.575 382.5H103.653V372.812H102.575V382.5ZM106.888 382.5V376.816C106.888 376.816 107.77 376.298 108.764 376.298C110.038 376.298 110.234 376.956 110.234 378.888V382.5H111.284V378.86C111.284 378.02 111.228 377.138 111.102 376.816C111.102 376.816 112.04 376.298 113.076 376.298C114.336 376.298 114.546 376.984 114.546 378.832V382.5H115.596V378.804C115.596 376.27 115.134 375.36 113.23 375.36C111.984 375.36 110.738 376.074 110.738 376.074C110.374 375.57 109.856 375.36 108.918 375.36C107.924 375.36 106.874 375.99 106.874 375.99V375.5H105.838V382.5H106.888ZM117.541 385.608H118.591V382.486C118.787 382.528 119.501 382.64 120.159 382.64C122.315 382.64 123.211 381.66 123.211 378.916C123.211 376.438 122.441 375.36 120.677 375.36C119.641 375.36 118.577 376.004 118.577 376.004V375.5H117.541V385.608ZM120.523 376.298C121.545 376.298 122.147 376.998 122.147 378.916C122.147 380.932 121.643 381.73 120.103 381.73C119.501 381.73 118.773 381.604 118.591 381.576V376.858C118.591 376.858 119.571 376.298 120.523 376.298ZM127.612 375.36C125.4 375.36 124.616 376.508 124.616 378.916C124.616 381.464 125.26 382.64 127.612 382.64C129.978 382.64 130.608 381.464 130.608 378.916C130.608 376.508 129.838 375.36 127.612 375.36ZM127.612 381.73C125.96 381.73 125.694 380.904 125.694 378.916C125.694 376.97 126.128 376.27 127.612 376.27C129.11 376.27 129.53 376.97 129.53 378.916C129.53 380.904 129.278 381.73 127.612 381.73ZM132.321 382.5H133.37V377.362C133.37 377.362 134.603 376.676 135.919 376.41V375.346C134.575 375.612 133.357 376.452 133.357 376.452V375.5H132.321V382.5ZM145.179 377.614C145.179 376.088 144.507 375.36 142.925 375.36C141.721 375.36 140.181 375.668 140.181 375.668L140.223 376.466C140.223 376.466 141.889 376.284 142.869 376.284C143.709 376.284 144.129 376.634 144.129 377.614V378.216L141.931 378.426C140.489 378.566 139.789 379.154 139.789 380.498C139.789 381.912 140.489 382.64 141.763 382.64C143.023 382.64 144.283 382.08 144.283 382.08C144.703 382.5 145.207 382.64 145.949 382.64L145.991 381.814C145.543 381.758 145.207 381.604 145.179 381.198V377.614ZM144.129 379.014V381.324C144.129 381.324 142.967 381.758 141.931 381.758C141.217 381.758 140.867 381.282 140.867 380.47C140.867 379.7 141.203 379.294 142.057 379.21L144.129 379.014ZM152.916 381.716C151.544 381.716 151.082 380.932 151.082 379.434H155.702L155.758 378.636C155.758 376.34 154.806 375.36 152.944 375.36C151.166 375.36 150.018 376.382 150.018 379.042C150.018 381.422 150.704 382.64 152.79 382.64C153.924 382.64 155.52 382.416 155.52 382.416L155.492 381.59C155.492 381.59 153.966 381.716 152.916 381.716ZM151.068 378.594C151.082 376.9 151.754 376.242 152.944 376.242C154.176 376.242 154.708 376.858 154.708 378.594H151.068ZM156.64 375.5L158.838 379L156.64 382.5H157.788L159.496 379.77L161.19 382.5H162.338L160.126 378.972L162.352 375.5H161.204L159.496 378.244L157.788 375.5H156.64ZM163.67 382.5H164.72V375.5H163.67V382.5ZM163.67 373.918H164.72V372.7H163.67V373.918ZM171.409 375.626C171.409 375.626 169.925 375.36 168.875 375.36C167.601 375.36 166.355 375.864 166.355 377.404C166.355 378.804 167.111 379.098 168.693 379.35C170.219 379.588 170.583 379.77 170.583 380.498C170.583 381.45 169.967 381.702 168.819 381.702C168.105 381.702 166.509 381.464 166.509 381.464L166.453 382.374C166.453 382.374 168.021 382.64 168.917 382.64C170.597 382.64 171.633 382.094 171.633 380.456C171.633 379.098 170.975 378.748 169.225 378.454C167.741 378.202 167.405 378.02 167.405 377.362C167.405 376.536 168.063 376.298 168.931 376.298C169.827 376.298 171.381 376.522 171.381 376.522L171.409 375.626ZM176.866 376.41V375.5H174.64V373.358H173.604V375.5H172.61V376.41H173.604V380.092C173.604 382.108 174.094 382.654 175.536 382.654C176.026 382.654 176.964 382.5 176.964 382.5L176.894 381.632C176.894 381.632 176.04 381.716 175.648 381.716C174.738 381.716 174.64 381.282 174.64 379.756V376.41H176.866ZM178.149 382.5H179.199V375.5H178.149V382.5ZM178.149 373.918H179.199V372.7H178.149V373.918ZM182.261 382.5V376.816C182.261 376.816 183.227 376.298 184.235 376.298C185.537 376.298 185.747 376.984 185.747 378.832V382.5H186.783V378.804C186.783 376.312 186.349 375.36 184.417 375.36C183.381 375.36 182.247 375.99 182.247 375.99V375.5H181.211V382.5H182.261ZM191.433 385.79C193.407 385.79 194.541 385.146 194.541 383.564C194.541 381.898 193.827 381.506 191.839 381.506C190.257 381.506 190.145 381.422 190.145 380.862C190.145 380.68 190.397 380.064 190.397 380.064C190.551 380.092 190.943 380.12 191.083 380.12C192.875 380.12 193.785 379.574 193.785 377.754C193.785 377.012 193.589 376.62 193.323 376.354L194.653 376.382V375.486L192.581 375.542C192.581 375.542 191.825 375.36 191.125 375.36C189.571 375.36 188.507 376.032 188.507 377.754C188.507 379.042 189.025 379.602 189.613 379.868C189.613 379.868 189.137 380.708 189.137 380.974C189.137 381.408 189.277 381.772 189.529 381.94C188.801 382.486 188.423 382.864 188.423 383.676C188.423 385.3 189.221 385.79 191.433 385.79ZM191.755 382.43C193.029 382.43 193.477 382.542 193.477 383.606C193.477 384.53 192.847 384.908 191.447 384.908C189.865 384.908 189.459 384.558 189.459 383.592C189.459 383.046 189.655 382.794 190.243 382.36C190.243 382.36 191.265 382.43 191.755 382.43ZM191.125 379.28C190.033 379.28 189.557 378.86 189.557 377.754C189.557 376.648 190.033 376.214 191.125 376.214C192.301 376.214 192.735 376.648 192.735 377.754C192.735 378.86 192.301 379.28 191.125 379.28ZM198.41 372.812L200.384 382.5H202.358L204.192 374.226L206.026 382.5H208L209.96 372.812H208.854L207.202 381.548H206.796L204.822 372.896H203.562L201.588 381.548H201.182L199.53 372.812H198.41ZM216.136 377.614C216.136 376.088 215.464 375.36 213.882 375.36C212.678 375.36 211.138 375.668 211.138 375.668L211.18 376.466C211.18 376.466 212.846 376.284 213.826 376.284C214.666 376.284 215.086 376.634 215.086 377.614V378.216L212.888 378.426C211.446 378.566 210.746 379.154 210.746 380.498C210.746 381.912 211.446 382.64 212.72 382.64C213.98 382.64 215.24 382.08 215.24 382.08C215.66 382.5 216.164 382.64 216.906 382.64L216.948 381.814C216.5 381.758 216.164 381.604 216.136 381.198V377.614ZM215.086 379.014V381.324C215.086 381.324 213.924 381.758 212.888 381.758C212.174 381.758 211.824 381.282 211.824 380.47C211.824 379.7 212.16 379.294 213.014 379.21L215.086 379.014ZM218.291 382.5H219.341V372.448H218.291V382.5ZM221.531 382.5H222.581V372.448H221.531V382.5ZM227.278 381.716C225.906 381.716 225.444 380.932 225.444 379.434H230.064L230.12 378.636C230.12 376.34 229.168 375.36 227.306 375.36C225.528 375.36 224.38 376.382 224.38 379.042C224.38 381.422 225.066 382.64 227.152 382.64C228.286 382.64 229.882 382.416 229.882 382.416L229.854 381.59C229.854 381.59 228.328 381.716 227.278 381.716ZM225.43 378.594C225.444 376.9 226.116 376.242 227.306 376.242C228.538 376.242 229.07 376.858 229.07 378.594H225.43ZM235.341 376.41V375.5H233.115V373.358H232.079V375.5H231.085V376.41H232.079V380.092C232.079 382.108 232.569 382.654 234.011 382.654C234.501 382.654 235.439 382.5 235.439 382.5L235.369 381.632C235.369 381.632 234.515 381.716 234.123 381.716C233.213 381.716 233.115 381.282 233.115 379.756V376.41H235.341Z" fill="white"/>
<path d="M252.577 381.729C252.902 382.054 253.467 382.054 253.792 381.729C254.544 380.976 255.314 380.206 256.067 379.453C256.854 378.666 255.639 377.469 254.852 378.239C254.579 378.512 254.305 378.786 254.031 379.06C254.031 377.486 254.031 375.912 254.031 374.321C254.031 373.226 252.32 373.226 252.32 374.321C252.32 375.895 252.32 377.469 252.32 379.06C252.047 378.786 251.773 378.512 251.499 378.239C250.712 377.452 249.515 378.666 250.285 379.453C251.054 380.206 251.824 380.976 252.577 381.729Z" fill="white"/>
<path d="M258.547 382.789C255.417 382.789 252.286 382.789 249.173 382.789C248.728 382.789 248.266 382.789 247.821 382.789C246.726 382.789 246.726 384.5 247.821 384.5C250.952 384.5 254.082 384.5 257.196 384.5C257.641 384.5 258.103 384.5 258.547 384.5C259.659 384.5 259.659 382.789 258.547 382.789Z" fill="white"/>
<path d="M108.5 -94C66.824 -94 33 -60.176 33 -18.5C33 23.176 66.824 57 108.5 57C150.176 57 184 23.176 184 -18.5C184 -60.176 150.176 -94 108.5 -94ZM108.5 25.29C84.34 25.29 64.71 5.65999 64.71 -18.5C64.71 -42.66 84.34 -62.29 108.5 -62.29C132.66 -62.29 152.29 -42.66 152.29 -18.5C152.29 5.65999 132.66 25.29 108.5 25.29Z" fill="#AEFEFF"/>
<path d="M293.862 580.915L235.274 534.673C215.44 518.952 186.636 522.4 170.915 542.234L124.673 600.822C108.952 620.656 112.4 649.46 132.234 665.181L190.822 711.423C210.656 727.144 239.46 723.696 255.181 703.862L301.423 645.274C317.144 625.44 313.696 596.636 293.862 580.915ZM240.419 666.137C229.672 679.675 209.955 682.087 196.417 671.34L169.96 650.419C156.421 639.672 154.009 619.955 164.756 606.417L185.677 579.96C196.425 566.421 216.141 564.009 229.68 574.756L256.137 595.677C269.675 606.425 272.087 626.141 261.34 639.68L240.419 666.137Z" fill="#48466D"/>
<path d="M28.5479 343.669L-20.1395 328.668L-69.1028 313.53C-109.239 301.12 -147.858 336.305 -138.617 376.809L-127.445 426.314L-116.273 475.818C-107.032 516.322 -56.9654 531.869 -26.0703 503.639L11.5831 469.272L49.0986 435.178C80.4076 406.948 68.8219 356.079 28.5479 343.669ZM7.85918 424.132L-12.6916 442.952L-33.3803 461.635C-50.483 477.182 -78.0679 468.59 -83.1711 446.225L-89.2398 419.222L-95.3085 392.219C-100.412 369.854 -79.0334 350.488 -56.9654 357.307L-30.2081 365.626L-3.45065 373.945C18.6173 380.627 24.9618 408.585 7.85918 424.132Z" fill="#3D84A8"/>
<path d="M396.104 87.8883L380.935 93.6813C372.591 96.8674 363.286 95.7192 355.963 90.5745L342.646 81.2581C324.239 68.4521 299.146 82.3885 300.288 104.783L301.059 121.067C301.5 129.902 297.512 138.565 290.498 143.908L277.563 153.724C259.754 167.299 265.264 195.427 286.968 201.401L302.58 205.627C311.116 207.991 318.083 214.387 321.023 222.755L326.378 238.072C333.79 259.222 362.276 262.745 374.558 243.949L383.418 230.343C388.333 222.876 396.564 218.305 405.4 218.135L421.633 217.804C444.081 217.312 456.146 191.268 442.109 173.797L431.936 161.156C426.386 154.237 424.539 144.999 427.143 136.446L431.807 120.96C438.107 99.4328 417.04 79.9454 396.104 87.8883ZM397.11 137.467L393.926 148.052C392.668 152.172 393.586 156.662 396.199 159.948L403.112 168.611C409.912 177.072 404.086 189.519 393.297 189.721L382.252 189.934C377.99 190.064 374.075 192.238 371.713 195.787L365.694 205.051C359.821 214.103 346.119 212.37 342.586 202.225L338.886 191.779C337.422 187.724 334.15 184.671 329.988 183.562L319.32 180.67C308.908 177.767 306.255 164.239 314.863 157.747L323.717 150.988C327.152 148.422 329.023 144.225 328.786 140.014L328.243 128.867C327.766 118.078 339.811 111.388 348.618 117.551L357.794 123.903C361.343 126.275 365.796 126.96 369.789 125.401L380.207 121.457C390.067 117.692 400.148 127.094 397.11 137.467Z" fill="#ABEDD8"/>
</g>
<defs>
<clipPath id="clip0_395_1775">
<rect width="358" height="600" fill="white"/>
</clipPath>
</defs>
</svg>
