<svg width="218" height="65" viewBox="0 0 218 65" fill="none" xmlns="http://www.w3.org/2000/svg">
<path d="M45 35.75H31V48.75H45V35.75ZM17.875 16.25L25.75 29.25H10L17.875 16.25ZM38 29.25C39.8565 29.25 41.637 28.5652 42.9497 27.3462C44.2625 26.1272 45 24.4739 45 22.75C45 21.0261 44.2625 19.3728 42.9497 18.1538C41.637 16.9348 39.8565 16.25 38 16.25C36.1435 16.25 34.363 16.9348 33.0502 18.1538C31.7375 19.3728 31 21.0261 31 22.75C31 24.4739 31.7375 26.1272 33.0502 27.3462C34.363 28.5652 36.1435 29.25 38 29.25Z" stroke="url(#paint0_linear_20_41)" stroke-width="4" stroke-linejoin="round"/>
<path d="M10 35.75L24 48.75M24 35.75L10 48.75" stroke="url(#paint1_linear_20_41)" stroke-width="4" stroke-linecap="round" stroke-linejoin="round"/>
<path d="M61.9746 41.92C61.452 41.92 60.9013 41.8733 60.3226 41.78C59.744 41.6867 59.3053 41.5747 59.0066 41.444V39.008C59.2866 39.12 59.6413 39.2133 60.0706 39.288C60.5186 39.3627 60.9386 39.4 61.3306 39.4C63.2533 39.4 64.2146 38.4667 64.2146 36.6V21.928H67.0706V36.796C67.0706 38.4013 66.6133 39.6613 65.6986 40.576C64.784 41.472 63.5426 41.92 61.9746 41.92ZM78.524 41.92C75.8546 41.92 73.8386 41.2387 72.476 39.876C71.1133 38.4947 70.432 36.6 70.432 34.192V21.928H73.288V34.304C73.288 35.9653 73.7546 37.2253 74.688 38.084C75.6213 38.924 76.9 39.344 78.524 39.344C80.1293 39.344 81.3986 38.924 82.332 38.084C83.2653 37.2253 83.732 35.9653 83.732 34.304V21.928H86.588V34.192C86.588 36.5813 85.9066 38.4667 84.544 39.848C83.1813 41.2293 81.1746 41.92 78.524 41.92ZM95.5274 41.92C94.4074 41.92 93.2967 41.8173 92.1954 41.612C91.1127 41.4253 90.2261 41.164 89.5354 40.828V38.252C91.3274 39.092 93.2594 39.512 95.3314 39.512C98.2434 39.512 99.6994 38.532 99.6994 36.572C99.6994 35.9 99.5407 35.3587 99.2234 34.948C98.9061 34.5373 98.4487 34.1827 97.8514 33.884C97.2541 33.5667 96.2834 33.1373 94.9394 32.596C93.0914 31.8493 91.7567 31.028 90.9354 30.132C90.1141 29.236 89.7034 28.1067 89.7034 26.744C89.7034 25.7173 89.9834 24.812 90.5434 24.028C91.1034 23.2253 91.8874 22.6093 92.8954 22.18C93.9034 21.732 95.0607 21.508 96.3674 21.508C97.4314 21.508 98.3927 21.592 99.2514 21.76C100.11 21.928 100.95 22.1987 101.771 22.572V25.036C100.147 24.308 98.5047 23.944 96.8434 23.944C95.4994 23.944 94.4727 24.1867 93.7634 24.672C93.0541 25.1573 92.6994 25.848 92.6994 26.744C92.6994 27.36 92.8487 27.8827 93.1474 28.312C93.4647 28.7227 93.9221 29.096 94.5194 29.432C95.1354 29.7493 96.0407 30.1507 97.2354 30.636C98.5607 31.1773 99.6061 31.6907 100.371 32.176C101.137 32.6613 101.715 33.2587 102.107 33.968C102.518 34.6587 102.723 35.5267 102.723 36.572C102.723 38.2707 102.117 39.5867 100.903 40.52C99.6901 41.4533 97.8981 41.92 95.5274 41.92ZM110.036 24.336H103.96V21.928H118.996V24.336H112.92V41.5H110.036V24.336Z" fill="#FBFBFC" fill-opacity="0.7"/>
<path d="M125.53 22.03H132.82C135.1 22.03 137.09 22.45 138.79 23.29C140.49 24.13 141.8 25.33 142.72 26.89C143.64 28.45 144.1 30.29 144.1 32.41C144.1 35.89 143.08 38.53 141.04 40.33C139.02 42.11 136.2 43 132.58 43H125.53V22.03ZM132.82 39.19C134.96 39.19 136.6 38.59 137.74 37.39C138.88 36.19 139.45 34.53 139.45 32.41C139.45 31.15 139.2 30.02 138.7 29.02C138.2 28.02 137.47 27.24 136.51 26.68C135.55 26.12 134.42 25.84 133.12 25.84H130.09V39.19H132.82ZM146.623 22.03H151.183V31.15L159.103 22.03H164.533L155.653 32.26L165.133 43H159.703L151.183 33.37V43H146.623V22.03ZM167.659 22.03H172.219V43H167.659V22.03ZM175.364 22.03H179.924V39.19H189.524V43H175.364V22.03ZM191.477 22.03H196.037V39.19H205.637V43H191.477V22.03Z" fill="#FBFBFC"/>
<defs>
<linearGradient id="paint0_linear_20_41" x1="27.5" y1="16.25" x2="27.5" y2="48.75" gradientUnits="userSpaceOnUse">
<stop stop-color="#EE466F"/>
<stop offset="1" stop-color="#901130"/>
</linearGradient>
<linearGradient id="paint1_linear_20_41" x1="17" y1="35.75" x2="17" y2="48.75" gradientUnits="userSpaceOnUse">
<stop stop-color="#EE466F"/>
<stop offset="1" stop-color="#901130"/>
</linearGradient>
</defs>
</svg>
